<svg xmlns="http://www.w3.org/2000/svg" width="1120" height="700" viewBox="0 0 1120 700" role="img" aria-labelledby="title desc">
  <title id="title">DinoRush UI reference</title>
  <desc id="desc">High fidelity interface reference for a browser game start and play screen.</desc>
  <defs>
    <linearGradient id="sky" x1="0" x2="0" y1="0" y2="1">
      <stop offset="0" stop-color="#0f2440"/>
      <stop offset="1" stop-color="#101827"/>
    </linearGradient>
    <linearGradient id="accent" x1="0" x2="1">
      <stop offset="0" stop-color="#38bdf8"/>
      <stop offset="1" stop-color="#8b5cf6"/>
    </linearGradient>
  </defs>
  <rect width="1120" height="700" fill="url(#sky)"/>
  <rect x="66" y="58" width="988" height="584" rx="32" fill="#0b1220" stroke="#24415a"/>
  <text x="104" y="108" fill="#e0f2fe" font-size="27" font-family="Inter, Arial, sans-serif" font-weight="900">DinoRush</text>
  <text x="262" y="108" fill="#bae6fd" font-size="14" font-family="Inter, Arial, sans-serif">Responsive play prototype</text>
  <rect x="104" y="154" width="912" height="340" rx="26" fill="#dbeafe"/>
  <circle cx="178" cy="220" r="44" fill="#fde68a"/>
  <path d="M104 420 C210 360 300 420 410 372 C535 318 620 410 738 356 C846 306 928 360 1016 326 L1016 494 L104 494 Z" fill="#93c5fd"/>
  <rect x="104" y="438" width="912" height="56" fill="#0f172a"/>
  <rect x="184" y="380" width="60" height="64" rx="10" fill="#38bdf8"/>
  <rect x="224" y="342" width="52" height="44" rx="10" fill="#38bdf8"/>
  <rect x="250" y="354" width="10" height="10" rx="5" fill="#0f172a"/>
  <rect x="192" y="444" width="16" height="34" rx="8" fill="#8b5cf6"/>
  <rect x="232" y="444" width="16" height="34" rx="8" fill="#8b5cf6"/>
  <rect x="680" y="398" width="34" height="40" rx="8" fill="#1e293b"/>
  <rect x="748" y="374" width="36" height="64" rx="8" fill="#1e293b"/>
  <rect x="830" y="410" width="30" height="28" rx="8" fill="#1e293b"/>
  <rect x="104" y="526" width="272" height="70" rx="22" fill="#111827" stroke="#2a415a"/>
  <text x="132" y="568" fill="#e0f2fe" font-size="14" font-family="Inter, Arial, sans-serif" font-weight="900">Score 02480</text>
  <rect x="424" y="526" width="272" height="70" rx="22" fill="#111827" stroke="#2a415a"/>
  <text x="452" y="568" fill="#e0f2fe" font-size="14" font-family="Inter, Arial, sans-serif" font-weight="900">Mobile controls ready</text>
  <rect x="744" y="526" width="272" height="70" rx="22" fill="url(#accent)"/>
  <text x="836" y="568" fill="#07111f" font-size="14" font-family="Inter, Arial, sans-serif" font-weight="900">Play</text>
</svg>
